<?xml version="1.0" encoding="UTF-8" standalone="no"?>
<!DOCTYPE svg PUBLIC "-//W3C//DTD SVG 1.1//EN" "http://www.w3.org/Graphics/SVG/1.1/DTD/svg11.dtd">
<svg width="100%" height="100%" viewBox="0 0 1500 750" version="1.1" xmlns="http://www.w3.org/2000/svg" xmlns:xlink="http://www.w3.org/1999/xlink" xml:space="preserve" xmlns:serif="http://www.serif.com/" style="fill-rule:evenodd;clip-rule:evenodd;stroke-linejoin:round;stroke-miterlimit:2;">
    <g transform="matrix(14.35,0,0,14.35,622.065,424.405)">
        <path d="M0,-2.701L-1.191,-2.701L-1.191,0L0.089,0C1.119,0 1.599,-0.48 1.599,-1.333L1.599,-1.404C1.599,-2.239 1.137,-2.701 0,-2.701" style="fill:rgb(43,172,226);fill-rule:nonzero;"/>
    </g>
    <g transform="matrix(14.35,0,0,14.35,1216.91,281.221)">
        <path d="M0,12.626L-9.312,12.626L-9.312,-0.081L-0.284,-0.081L-0.284,3.012L-5.296,3.012L-5.296,4.807L-1.315,4.807L-1.315,7.632L-5.296,7.632L-5.296,9.534L0,9.534L0,12.626ZM-10.376,3.012L-13.593,3.012L-13.593,12.626L-17.645,12.626L-17.645,3.012L-20.843,3.012L-20.843,-0.081L-10.376,-0.081L-10.376,3.012ZM-19.864,12.626L-28.519,12.626L-28.519,-0.081L-24.485,-0.081L-24.485,9.516L-19.864,9.516L-19.864,12.626ZM-30.455,12.626L-34.525,12.626L-34.525,-0.081L-30.455,-0.081L-30.455,12.626ZM-35.89,9.09C-35.89,11.346 -37.329,12.626 -40.599,12.626L-46.571,12.626L-46.571,-0.081L-40.564,-0.081C-37.436,-0.081 -36.228,1.359 -36.228,3.243L-36.228,3.314C-36.228,4.789 -37.01,5.713 -38.431,6.05C-36.939,6.317 -35.89,7.241 -35.89,9.018L-35.89,9.09ZM-47.758,6.246C-47.758,10.209 -50.477,12.857 -54.654,12.857C-58.812,12.857 -61.371,10.209 -61.371,6.353L-61.371,6.21C-61.371,2.283 -58.386,-0.276 -54.582,-0.276C-50.673,-0.276 -47.758,2.087 -47.758,6.104L-47.758,6.246ZM8.937,12.626L6.751,8.45L4.565,12.626L0.424,12.626L4.298,6.086L0.708,-0.081L5.311,-0.081L7.089,3.491L8.83,-0.081L12.953,-0.081L9.63,5.944L12.171,10.308L19.462,-7.041L-73.407,-7.041L-76.231,-0.081L-72.048,-0.081L-69.898,6.086L-67.712,-0.081L-62.594,-0.081L-62.594,12.626L-66.592,12.626L-66.592,5.126L-69.489,12.626L-70.84,12.626L-73.683,5.126L-73.683,12.626L-77.273,12.626L-77.273,2.488L-84.242,19.667L8.238,19.667L11.197,12.626L8.937,12.626Z" style="fill:rgb(43,172,226);fill-rule:nonzero;"/>
    </g>
    <g transform="matrix(14.35,0,0,14.35,642.465,333.884)">
        <path d="M0,0.088L0,0.017C0,-0.747 -0.409,-1.12 -1.404,-1.12L-2.612,-1.12L-2.612,1.208L-1.386,1.208C-0.391,1.208 0,0.87 0,0.088" style="fill:rgb(43,172,226);fill-rule:nonzero;"/>
    </g>
    <g transform="matrix(14.35,0,0,14.35,433.648,420.325)">
        <path d="M0,-6.824C-1.564,-6.824 -2.577,-5.669 -2.577,-3.501L-2.577,-3.359C-2.577,-1.191 -1.564,0 0.035,0C1.617,0 2.63,-1.244 2.63,-3.359L2.63,-3.501C2.63,-5.651 1.599,-6.824 0,-6.824" style="fill:rgb(43,172,226);fill-rule:nonzero;"/>
    </g>
</svg>
